<svg width="175" height="45" viewBox="0 0 175 45" fill="none" xmlns="http://www.w3.org/2000/svg">
<path d="M1.54545 41.381H5.6875C8.1875 41.381 9.34091 40.0912 9.34091 38.3298C9.34091 36.5628 8.17045 35.5003 7.03977 35.4207V35.3298C8.07955 35.0514 8.88636 34.2446 8.88636 32.79C8.88636 31.04 7.74432 29.7446 5.47159 29.7446H1.54545V41.381ZM2.60795 40.4264V35.9435H5.73295C7.29545 35.9435 8.32386 37.0003 8.32386 38.3298C8.32386 39.5344 7.48295 40.4264 5.6875 40.4264H2.60795ZM2.60795 35.0003V30.6991H5.47159C7.0625 30.6991 7.86932 31.5571 7.86932 32.79C7.86932 34.0685 6.94318 35.0003 5.56818 35.0003H2.60795ZM14.1321 41.5798C15.5866 41.5798 16.473 40.773 16.8366 40.0003H16.8991V41.381H17.9105V35.4548C17.9105 33.1139 16.1491 32.5344 14.8139 32.5344C13.4787 32.5344 12.1037 33.0628 11.5128 34.4889L12.473 34.8355C12.7912 34.0855 13.581 33.4435 14.8423 33.4435C16.1662 33.4435 16.8991 34.1707 16.8991 35.3639V35.5685C16.8991 36.2275 16.081 36.2389 14.6151 36.4207C12.6435 36.665 11.2628 37.2162 11.2628 38.9435C11.2628 40.6253 12.5469 41.5798 14.1321 41.5798ZM14.2685 40.6537C13.1264 40.6537 12.2741 40.0457 12.2741 38.9889C12.2741 37.9321 13.1378 37.4889 14.6151 37.3071C15.331 37.2219 16.6037 37.0628 16.8991 36.773V38.0344C16.8991 39.4662 15.8821 40.6537 14.2685 40.6537ZM24.0099 41.5628C25.8281 41.5628 27.1065 40.415 27.3395 38.8355H26.3168C26.0838 39.9491 25.169 40.6366 24.0099 40.6366C22.2997 40.6366 21.169 39.148 21.169 37.023C21.169 34.9094 22.3338 33.4548 24.0099 33.4548C25.2543 33.4548 26.0952 34.256 26.3111 35.2446H27.3338C27.0952 33.6253 25.7429 32.5344 23.9929 32.5344C21.7088 32.5344 20.152 34.4321 20.152 37.0571C20.152 39.6594 21.6634 41.5628 24.0099 41.5628ZM29.5071 41.381H30.5185V38.0003L31.5241 37.0571L34.9446 41.381H36.2401L32.2798 36.3923L36.0128 32.6537H34.7344L30.6435 36.7616H30.5185V29.7446H29.5071V41.381ZM41.0824 41.5628C42.8324 41.5628 44.0085 40.6139 44.4062 39.5173L43.446 39.2048C43.1108 39.9889 42.321 40.6366 41.0824 40.6366C39.2983 40.6366 38.1676 39.3355 38.1222 37.3185H44.6222V36.8185C44.6222 33.9037 42.821 32.5344 40.929 32.5344C38.6676 32.5344 37.1051 34.4264 37.1051 37.0685C37.1051 39.7162 38.6392 41.5628 41.0824 41.5628ZM38.1278 36.4264C38.2358 34.8014 39.3324 33.4548 40.929 33.4548C42.4915 33.4548 43.5881 34.7446 43.5881 36.4264H38.1278ZM47.8622 35.9264C47.8622 34.4037 48.8622 33.4662 50.2372 33.4662C51.5781 33.4662 52.4418 34.3639 52.4418 35.79V41.381H53.4531V35.7275C53.4531 33.6594 52.2543 32.54 50.4929 32.54C49.2145 32.54 48.3338 33.131 47.9247 34.023H47.8338V32.6537H46.8509V41.381H47.8622V35.9264ZM59.2585 41.5628C60.8438 41.5628 61.5824 40.5571 61.9403 39.7616H62.0597V41.381H63.0483V29.7446H62.0312V34.3185H61.9403C61.5938 33.5344 60.8722 32.5344 59.2756 32.5344C57.1222 32.5344 55.6676 34.3525 55.6676 37.04C55.6676 39.7503 57.1165 41.5628 59.2585 41.5628ZM59.3778 40.6366C57.6392 40.6366 56.6847 39.0571 56.6847 37.023C56.6847 35.0116 57.6278 33.4548 59.3778 33.4548C61.0824 33.4548 62.0483 34.9321 62.0483 37.023C62.0483 39.131 61.071 40.6366 59.3778 40.6366ZM74.0483 41.381C77.5483 41.381 79.5426 39.1935 79.5483 35.5344C79.5483 31.915 77.5824 29.7446 74.2528 29.7446H70.6392V41.381H74.0483ZM71.7017 40.4264V30.6991H74.1903C77.0142 30.6991 78.5142 32.523 78.5199 35.5344C78.5199 38.5741 76.9858 40.4264 73.9858 40.4264H71.7017ZM85.4418 41.5628C87.1918 41.5628 88.3679 40.6139 88.7656 39.5173L87.8054 39.2048C87.4702 39.9889 86.6804 40.6366 85.4418 40.6366C83.6577 40.6366 82.527 39.3355 82.4815 37.3185H88.9815V36.8185C88.9815 33.9037 87.1804 32.5344 85.2884 32.5344C83.027 32.5344 81.4645 34.4264 81.4645 37.0685C81.4645 39.7162 82.9986 41.5628 85.4418 41.5628ZM82.4872 36.4264C82.5952 34.8014 83.6918 33.4548 85.2884 33.4548C86.8509 33.4548 87.9474 34.7446 87.9474 36.4264H82.4872ZM97.7003 32.6537H96.6037L94.0128 40.0457H93.9332L91.3423 32.6537H90.2457L93.4332 41.381H94.5128L97.7003 32.6537ZM102.895 41.5628C104.645 41.5628 105.821 40.6139 106.219 39.5173L105.259 39.2048C104.923 39.9889 104.134 40.6366 102.895 40.6366C101.111 40.6366 99.9801 39.3355 99.9347 37.3185H106.435V36.8185C106.435 33.9037 104.634 32.5344 102.741 32.5344C100.48 32.5344 98.9176 34.4264 98.9176 37.0685C98.9176 39.7162 100.452 41.5628 102.895 41.5628ZM99.9403 36.4264C100.048 34.8014 101.145 33.4548 102.741 33.4548C104.304 33.4548 105.401 34.7446 105.401 36.4264H99.9403ZM109.675 29.7446H108.663V41.381H109.675V29.7446ZM115.743 41.5628C118.004 41.5628 119.584 39.7162 119.584 37.0571C119.584 34.381 118.004 32.5344 115.743 32.5344C113.482 32.5344 111.902 34.381 111.902 37.0571C111.902 39.7162 113.482 41.5628 115.743 41.5628ZM115.743 40.6366C113.93 40.6366 112.919 39.0116 112.919 37.0571C112.919 35.1025 113.93 33.4548 115.743 33.4548C117.555 33.4548 118.567 35.1025 118.567 37.0571C118.567 39.0116 117.555 40.6366 115.743 40.6366ZM121.787 44.6537H122.804V39.7616H122.895C123.241 40.5628 123.991 41.5628 125.577 41.5628C127.713 41.5628 129.168 39.7446 129.168 37.04C129.168 34.3469 127.719 32.5344 125.56 32.5344C123.957 32.5344 123.247 33.5344 122.895 34.3185H122.77V32.6537H121.787V44.6537ZM122.787 37.023C122.787 34.9321 123.747 33.4548 125.452 33.4548C127.207 33.4548 128.151 35.0116 128.151 37.023C128.151 39.0571 127.19 40.6366 125.452 40.6366C123.764 40.6366 122.787 39.131 122.787 37.023ZM134.911 41.5628C136.661 41.5628 137.837 40.6139 138.234 39.5173L137.274 39.2048C136.939 39.9889 136.149 40.6366 134.911 40.6366C133.126 40.6366 131.996 39.3355 131.95 37.3185H138.45V36.8185C138.45 33.9037 136.649 32.5344 134.757 32.5344C132.496 32.5344 130.933 34.4264 130.933 37.0685C130.933 39.7162 132.467 41.5628 134.911 41.5628ZM131.956 36.4264C132.064 34.8014 133.161 33.4548 134.757 33.4548C136.32 33.4548 137.416 34.7446 137.416 36.4264H131.956ZM140.679 41.381H141.69V35.7446C141.69 34.4491 142.685 33.5116 144.048 33.5116C144.315 33.5116 144.565 33.5571 144.656 33.5685V32.54C144.52 32.5344 144.287 32.523 144.122 32.523C143.026 32.523 142.088 33.1139 141.736 33.9946H141.662V32.6537H140.679V41.381Z" fill="#F2F2F2"/>
<path d="M9.50568 7.54545V19.7159C9.49716 21.3949 8.74716 22.2812 7.38352 22.2812C6.09659 22.2812 5.26136 21.4801 5.2358 20.0909H1.5625C1.54545 23.5767 4.03409 25.2386 7.19602 25.2386C10.733 25.2386 13.1449 23.0994 13.1534 19.7159V7.54545H9.50568ZM24.5312 19.4261C24.5398 21.1818 23.3381 22.1023 22.0341 22.1023C20.6619 22.1023 19.7756 21.1392 19.767 19.5966V11.9091H16.1364V20.2443C16.1449 23.304 17.9347 25.1705 20.5682 25.1705C22.5369 25.1705 23.9517 24.1562 24.5398 22.6222H24.6761V25H28.1619V11.9091H24.5312V19.4261ZM34.799 25.2472C36.7337 25.2472 37.9865 24.4034 38.6257 23.1847H38.728V25H42.1712V16.1705C42.1712 13.0511 39.5291 11.7386 36.6143 11.7386C33.478 11.7386 31.4155 13.2386 30.9126 15.625L34.2706 15.8977C34.5178 15.0284 35.2933 14.3892 36.5973 14.3892C37.8331 14.3892 38.5405 15.0114 38.5405 16.0852V16.1364C38.5405 16.9801 37.6456 17.0909 35.37 17.3125C32.7791 17.5511 30.4524 18.4205 30.4524 21.3438C30.4524 23.9347 32.3018 25.2472 34.799 25.2472ZM35.8388 22.7415C34.7223 22.7415 33.9212 22.2216 33.9212 21.2244C33.9212 20.2017 34.7649 19.6989 36.0433 19.5199C36.8359 19.4091 38.1314 19.2216 38.5661 18.9318V20.321C38.5661 21.6932 37.4325 22.7415 35.8388 22.7415ZM48.6186 17.4318C48.6271 15.7443 49.6328 14.7557 51.0987 14.7557C52.5561 14.7557 53.4339 15.7102 53.4254 17.3125V25H57.0561V16.6648C57.0561 13.6136 55.2663 11.7386 52.5391 11.7386C50.5959 11.7386 49.1896 12.6932 48.6016 14.2188H48.4482V11.9091H44.9879V25H48.6186V17.4318ZM77.1143 13.1875H80.8643C80.3871 9.73579 77.3445 7.30682 73.3984 7.30682C68.7876 7.30682 65.2337 10.6307 65.2337 16.2898C65.2337 21.8125 68.5575 25.2386 73.4751 25.2386C77.8814 25.2386 81.0263 22.4517 81.0263 17.858V15.6591H73.7223V18.4375H77.4723C77.4212 20.6023 75.9467 21.9744 73.4922 21.9744C70.7223 21.9744 68.9751 19.9034 68.9751 16.2557C68.9751 12.625 70.7905 10.571 73.4581 10.571C75.3587 10.571 76.6456 11.5511 77.1143 13.1875ZM92.125 19.4261C92.1335 21.1818 90.9318 22.1023 89.6278 22.1023C88.2557 22.1023 87.3693 21.1392 87.3608 19.5966V11.9091H83.7301V20.2443C83.7386 23.304 85.5284 25.1705 88.1619 25.1705C90.1307 25.1705 91.5455 24.1562 92.1335 22.6222H92.2699V25H95.7557V11.9091H92.125V19.4261ZM105.623 11.9091H103.16V8.77273H99.5291V11.9091H97.7393V14.6364H99.5291V21.4545C99.5121 24.0199 101.259 25.2898 103.893 25.179C104.83 25.1449 105.495 24.9574 105.862 24.8381L105.29 22.1364C105.112 22.1705 104.728 22.2557 104.387 22.2557C103.663 22.2557 103.16 21.983 103.16 20.9773V14.6364H105.623V11.9091ZM107.988 25H111.619V11.9091H107.988V25ZM109.812 10.2216C110.894 10.2216 111.781 9.39489 111.781 8.38068C111.781 7.375 110.894 6.54829 109.812 6.54829C108.738 6.54829 107.852 7.375 107.852 8.38068C107.852 9.39489 108.738 10.2216 109.812 10.2216ZM120.493 25.2557C123.732 25.2557 125.913 23.679 126.425 21.25L123.067 21.0284C122.7 22.0256 121.763 22.5455 120.553 22.5455C118.737 22.5455 117.587 21.3438 117.587 19.392V19.3835H126.501V18.3864C126.501 13.9375 123.808 11.7386 120.348 11.7386C116.496 11.7386 113.999 14.4744 113.999 18.5142C113.999 22.6648 116.462 25.2557 120.493 25.2557ZM117.587 17.1335C117.663 15.642 118.797 14.4489 120.408 14.4489C121.984 14.4489 123.075 15.5739 123.084 17.1335H117.587ZM118.959 10.2216H121.524L124.124 6.34375H120.766L118.959 10.2216ZM128.871 25H132.501V17.5938C132.501 15.983 133.678 14.875 135.28 14.875C135.783 14.875 136.473 14.9602 136.814 15.071V11.8494C136.49 11.7727 136.038 11.7216 135.672 11.7216C134.206 11.7216 133.004 12.5739 132.527 14.1932H132.391V11.9091H128.871V25ZM138.691 25H142.322V17.5938C142.322 15.983 143.498 14.875 145.1 14.875C145.603 14.875 146.293 14.9602 146.634 15.071V11.8494C146.31 11.7727 145.859 11.7216 145.492 11.7216C144.026 11.7216 142.825 12.5739 142.347 14.1932H142.211V11.9091H138.691V25ZM153.868 25.2557C157.107 25.2557 159.288 23.679 159.8 21.25L156.442 21.0284C156.075 22.0256 155.138 22.5455 153.928 22.5455C152.112 22.5455 150.962 21.3438 150.962 19.392V19.3835H159.876V18.3864C159.876 13.9375 157.183 11.7386 153.723 11.7386C149.871 11.7386 147.374 14.4744 147.374 18.5142C147.374 22.6648 149.837 25.2557 153.868 25.2557ZM150.962 17.1335C151.038 15.642 152.172 14.4489 153.783 14.4489C155.359 14.4489 156.45 15.5739 156.459 17.1335H150.962ZM162.178 25H173.18V22.1023H166.942V22.0085L172.959 14.2699V11.9091H162.399V14.8068H168.587V14.9006L162.178 22.8352V25Z" fill="#F2F2F2"/>
</svg>
